/* XPM */
static char *_7b84ffb304142f3e2468be77a745424tmE0k7V1Pu9ov88u[] = {
/* columns rows colors chars-per-pixel */
"64 64 203 2 ",
"   c #755E64",
".  c #666666",
"X  c #6D6667",
"o  c #6C6A65",
"O  c #6F666C",
"+  c #666E6B",
"@  c #6C6C6C",
"#  c #71676B",
"$  c #716B6D",
"%  c #796A6A",
"&  c #6C726D",
"*  c #73716E",
"=  c #78706D",
"-  c #6D6D71",
";  c #746E71",
":  c #7B6F72",
">  c #6E7372",
",  c #6F777A",
"<  c #6F7A79",
"1  c #747474",
"2  c #7A7475",
"3  c #757976",
"4  c #7A7976",
"5  c #757679",
"6  c #7B7679",
"7  c #757B7B",
"8  c #7C7C7C",
"9  c #82757B",
"0  c #827D7D",
"q  c #6F847F",
"w  c #74827C",
"e  c #7C817E",
"r  c #82827E",
"t  c #88827D",
"y  c #6B7F84",
"u  c #617E82",
"i  c #767E80",
"p  c #7D7E81",
"a  c #837E81",
"s  c #877F8A",
"d  c #897C83",
"f  c #5C8A89",
"g  c #6D8D85",
"h  c #658789",
"j  c #6C8B8B",
"k  c #668785",
"l  c #748382",
"z  c #7D8282",
"x  c #738A86",
"c  c #7A8B86",
"v  c #748B89",
"b  c #7C8C8B",
"n  c #6E938C",
"m  c #67928B",
"M  c #74938B",
"N  c #7E928E",
"B  c #7C9C8F",
"V  c #6C8D91",
"C  c #608D91",
"Z  c #738F95",
"A  c #6A9292",
"S  c #6E9893",
"D  c #6F9998",
"F  c #739394",
"G  c #7C9591",
"H  c #729992",
"J  c #7A9993",
"K  c #759699",
"L  c #739B9C",
"P  c #7D9B9D",
"I  c #7A979D",
"U  c #7CA59F",
"Y  c #749CA2",
"T  c #7E9BA1",
"R  c #5CB1B2",
"E  c #5BBABB",
"W  c #58B6B9",
"Q  c #62ADAC",
"!  c #7EA5A0",
"~  c #7CA5AA",
"^  c #76A8AB",
"/  c #69B9AD",
"(  c #71B7AF",
")  c #70B8AD",
"_  c #6DB3B5",
"`  c #68BEB1",
"'  c #62B8B6",
"]  c #78BEB4",
"[  c #50C1BF",
"{  c #61C2B5",
"}  c #6CCBBE",
"|  c #6FC3B4",
" . c #7AC3B9",
".. c #74C5B7",
"X. c #4FC6CE",
"o. c #4BCDCE",
"O. c #4FC8C5",
"+. c #54CAC3",
"@. c #59CAC6",
"#. c #4FD2C7",
"$. c #5DD3CC",
"%. c #4DCED3",
"&. c #54CED3",
"*. c #4DD7DA",
"=. c #5AD5D5",
"-. c #55D9D7",
";. c #69DCCD",
":. c #66D8C7",
">. c #73DCCB",
",. c #7BDAC8",
"<. c #65D9D4",
"1. c #7DDFD0",
"2. c #6FE0DC",
"3. c #7EE4D2",
"4. c #76E1D8",
"5. c #77F2DD",
"6. c #55EEE9",
"7. c #51E4EC",
"8. c #56F0ED",
"9. c #5DECF2",
"0. c #52F6F7",
"q. c #67EFED",
"w. c #66ECE3",
"e. c #63F2E9",
"r. c #6CFBEA",
"t. c #72FEF1",
"y. c #838383",
"u. c #8A8485",
"i. c #848985",
"p. c #8B8986",
"a. c #858689",
"s. c #8A8689",
"d. c #848C8B",
"f. c #8D8D8D",
"g. c #8B8B8B",
"h. c #908D8E",
"j. c #92868A",
"k. c #82938D",
"l. c #8B908C",
"z. c #90908E",
"x. c #8C8E90",
"c. c #868F96",
"v. c #938D90",
"b. c #859493",
"n. c #8C9393",
"m. c #8B9A97",
"M. c #839E9A",
"N. c #8D9C9B",
"B. c #809996",
"V. c #919191",
"C. c #909F9C",
"Z. c #86A39F",
"A. c #8AA29E",
"S. c #97A09F",
"D. c #979FA1",
"F. c #84A6A2",
"G. c #8BA3A1",
"H. c #83A9A5",
"J. c #85ABA9",
"K. c #84A7AB",
"L. c #92A3A2",
"P. c #84BFBB",
"I. c #AABEBC",
"U. c #B1BCBE",
"Y. c #8AC4AE",
"T. c #8AC3B5",
"R. c #8AC2B9",
"E. c #88C6BE",
"W. c #93C8BE",
"Q. c #AFC2BE",
"!. c #8CCBC2",
"~. c #91CCC3",
"^. c #93C4C1",
"/. c #84DACB",
"(. c #9DDDCD",
"). c #83D7D7",
"_. c #85DDD4",
"`. c #ADCBC3",
"'. c #A4DACC",
"]. c #B2D8CD",
"[. c #ACDED5",
"{. c #ABDED9",
"}. c #B0C7C1",
"|. c #8CE4CE",
" X c #9BE2CD",
".X c #8CE3D3",
"XX c #85E6D8",
"oX c #94E4D6",
"OX c #A8E4D9",
"+X c #B6E2D7",
"@X c #BCE2D9",
"#X c #80FEE9",
"$X c #83F3E7",
"%X c #90F5E7",
"&X c #81FEF0",
"*X c #92FBF4",
"=X c #9AFEF4",
"-X c #9EF9F5",
";X c #A1E5E4",
":X c #ABFCF4",
">X c #A5FEFA",
",X c #B4FFFC",
"<X c #C3E4DC",
/* pixels */
"v.g.y.8 8 u.g.f.y.p 6 ; 1 3 7 w 7 - . X * 1 1 6 9 u.x.n.g.g.z.x.g.g.g.g.g.g.g.g.y.6 5 1 1 5 8 6 5 & o o 1 5 5 3 8 8 y.y.8 8 8 y.",
"g.g.y.8 8 y.s.i.8 5 4 6 8 a y.d 0 2 1 * 1 3 > 3 3 7 z i.g.g.g.s.g.g.g.g.g.g.g.g.i.8 6 5 1 6 8 8 5 1 @ 1 5 5 1 1 5 5 6 8 8 8 8 8 ",
"y.y.z 6 6 8 8 w 1 1 0 u.i.y.g.j.p.i.e 3 6 2 @ . o @ @ 1 d y.8 p e y.y.y.8 8 y.i.g.g.y.6 8 8 8 8 8 6 6 6 8 5 @ o o @ 1 6 8 8 6 5 ",
"8 e 8 2 1 ; 3 w k x a.g.g.i.i.u.u.y.e 8 6 6 1 1 l v j k z 8 2 3 8 8 8 6 1 1 6 8 i.i.8 6 8 8 6 6 6 8 6 6 6 5 @ o o @ 1 6 8 8 6 5 ",
"e 8 5 1 $ . + w { ( F i y.0 1 @ - - 5 2 2 3 7 N E./.>./ H e 6 8 8 8 6 1 @ o @ 1 5 6 5 5 5 1 @ 1 5 5 5 5 5 5 1 1 5 4 6 8 y.8 8 8 ",
"y.y.6 6 1 @ & l }  .F 5 6 z v n f u , 6 6 4 e b.~..X3.| H 8 6 8 8 6 5 5 1 1 @ @ 1 5 6 6 6 1 1 1 6 6 6 5 5 5 5 5 8 8 8 8 8 6 8 8 ",
"g.g.a.i.s.a 8 z P M.c 8 0 b.R./.@.Q V z u.i.a s.n.G.J.P l 5 2 6 8 8 8 z y.y.8 6 6 8 y.i.8 6 6 6 y.g.i.y.8 6 6 8 y.8 6 5 5 5 5 5 ",
"u.g.g.g.h.g.8 8 u.r 4 4 2 G !._.-.E F z t i.e p e r s.a.8 2 5 5 6 6 8 y.g.a.y.6 8 8 i.g.y.8 8 8 i.g.V.g.i.y.y.i.y.8 5 1 5 5 5 5 ",
"6 8 y.i.y.0 6 3 6 6 + o X ; d.J U M.b i 7 5 8 0 a.u.0 6 3 8 8 5 5 5 8 y.y.8 6 5 5 6 6 6 8 8 6 6 8 i.g.g.g.g.g.g.g.i.6 5 6 8 8 6 ",
"1 3 e z z 8 6 1 $ 2 y.d.c w 3 6 s s.0 0 g.m.M.B d.a 2 1 3 8 y.z 5 5 8 y.8 8 5 5 1 5 5 6 8 8 6 6 8 y.i.g.g.i.i.i.i.y.6 1 3 8 y.y.",
"0 a g.g.a 0 0 1 @ z I.[.(.T.M 0 a a 4 l.Q.@X[.!.N 5 @ @ 1 0 s.i.y.y.i.p.y.8 6 6 6 6 8 8 8 8 8 8 8 8 6 6 6 6 5 1 6 5 $ @ 1 8 i.g.",
"8 8 g.g.8 a.m.m.M Z.{.:X=XXX^ Z x 8 1 b.[.,X-X).G , @ 1 1 8 u.i.y.y.a.i.y.r 8 y.y.y.i.y.6 8 y.y.i.y.5 1 1 @ o o 5 @ . . 1 8 i.g.",
"< 7 z y.p C.`.+X XoX%X&Xt.q.<.E J a.0 B.1.r.e.=.G 7 5 8 4 8 y.z 6 6 y.y.r y.i.g.g.g.g.i.6 8 i.g.g.i.6 1 1 1 1 1 6 1 o o 1 8 y.y.",
"5 1 2 ; 1 n.}.<XoX.X>.;.<.<.$.[ G a 9 b ` #.O.W x 8 a i.y.y.u.z 5 1 6 8 8 y.y.i.i.i.i.8 5 6 y.g.g.i.6 5 5 1 5 5 6 5 @ @ 6 8 8 8 ",
": ; ; @ @ 5 x.S.N.A.F.H.J.K.~ Y 7 ; # 1 y h j y < 8 u.g.g.g.f.i.6 1 5 5 6 6 5 1 6 6 5 1 1 1 5 8 y.y.8 6 5 1 1 1 5 5 5 5 8 y.8 6 ",
"6 w x g g q 7 8 a 0 u.p.i.i.t u.d.c x w > # * & , 8 u.g.f.h.f.i.y.6 6 6 8 8 1 @ 5 5 1 1 5 5 5 6 8 y.y.y.6 5 1 5 5 6 8 8 y.8 6 6 ",
"p.N.^._.>.` M 0 u.s.i.8 p 1 @ y.U.+X XY.k.% : 1 4 8 8 i.g.g.8 8 i.g.g.y.y.6 6 8 i.i.i.u.8 8 8 8 g.g.g.i.8 6 8 8 6 6 8 8 8 6 5 5 ",
"i.A.~..X3...J a 0 r z 6 2 5 v F.;X>X*X4._ V l 8 p y.y.a.g.u.8 4 i.g.g.g.i.y.8 i.g.f.g.i.8 8 y.i.g.g.g.i.y.y.y.y.y.i.i.i.i.y.6 5 ",
"y.d.M.! H.A.b 6 1 5 6 4 2 b R..Xw.q.9.7.*.W A 8 s.g.x.x.x.g.0 4 y.y.y.i.g.i.y.8 y.i.i.8 6 6 i.g.V.g.i.y.y.i.g.g.g.g.g.g.g.i.8 6 ",
"2 2 8 0 d s.a 8 j j 7 5 1 b R./.+.O.X.%.&.E A 6 0 u.f.f.g.a.0 4 6 6 6 y.i.i.y.8 6 6 6 5 1 5 8 g.g.i.y.6 6 8 i.g.g.g.g.g.g.i.y.8 ",
"# ; 8 8 8 8 z N { ) n > @ > l j m A Y ~ ~ F , O & 1 9 0 8 6 5 1 @ 1 8 e 8 6 8 8 5 5 5 1 @ o @ 1 5 6 8 8 6 6 8 y.y.8 8 6 6 6 6 5 ",
"- & 3 8 5 1 w J } ] F 5 1 * @ * 2 6 0 t u.u.b v f k i 0 8 6 3 3 @ 1 6 8 6 5 6 8 5 5 5 5 1 1 @ @ 1 6 8 8 6 5 6 8 y.y.8 6 5 5 4 8 ",
"3 3 0 d d 0 7 c H G d.i.i.i.r i.i.e & o * k.R.,.+.R L b.p.i.z 8 8 6 6 8 8 8 y.8 6 8 i.i.i.y.8 6 6 8 8 8 6 6 8 y.g.g.g.i.8 8 i.g.",
"a 8 p 8 3 8 6 9 2 8 g.V.v.v.g.n.L.L.b.d.d.J.oX#X0.=._ M.g.u.r 6 e 8 8 8 6 6 y.8 y.i.g.V.g.g.y.6 8 8 8 8 8 8 6 8 y.i.g.i.8 8 y.g.",
"8 u.2 * 3 3 - O   1 d.n.V.s.8 k.~.OX@X].'..X5.r.e.6.*.E K 8 2 4 6 6 6 5 5 5 8 r g.g.V.g.i.8 6 5 5 6 8 r r 6 1 @ @ 1 6 5 1 & 5 8 ",
"y.y.8 4 5 7 x m C j b g.p.i.7 b E.OX:X-X*X$X4.:.:.$.+.Q F 8 6 6 y.y.8 6 5 5 6 8 i.g.g.i.y.8 6 5 5 5 6 8 8 6 1 o . o 1 1 @ @ 1 3 ",
"h.d.d.i.8 b.T.,.o.R F 0 t r 8 a.G.E.2.8.6.=._ L M S D F c 8 8 p g.g.g.i.8 6 5 5 6 8 y.y.y.6 5 1 5 5 5 6 8 8 6 5 @ @ @ @ @ 5 y.g.",
"h.a.d.i.8 b.W.|.-.' K y.t t 8 s d I E o.%.R Z 9 = 1 6 8 8 8 e a.g.g.g.i.z 6 5 5 1 5 8 8 y.8 4 5 5 5 5 6 8 y.y.y.6 6 6 5 6 y.g.V.",
"y.y.8 8 5 z B.! ~ P b.g.g.i.e e 0 d.T ~ ~ P z 4 > 1 5 5 5 3 8 a y.y.8 6 5 5 8 8 8 8 8 8 8 8 8 8 6 6 8 8 8 8 8 z i.i.g.g.g.g.g.g.",
"8 0 6 2 5 5 8 a u.s.g.g.g.a.y.r r r i.g.g.i.r e 7 5 5 5 6 8 0 0 8 8 6 5 5 6 8 y.y.y.8 8 8 6 6 8 8 y.i.i.i.y.8 8 g.g.g.g.g.g.g.g.",
"e 0 6 8 8 6 0 0 t i.y.y.8 0 u.u.u.0 r r r r r 8 d 9 9 0 u.g.g.g.y.8 8 6 8 8 8 8 8 8 8 8 6 5 5 5 8 y.g.g.g.i.y.y.y.y.8 8 0 i.g.V.",
"z y.i.i.y.e i.r 8 e 8 4 * 4 y.a.a.a 6 6 6 8 8 8 e e e e g.g.g.i.i.y.8 8 8 y.y.y.y.8 8 6 5 1 5 6 6 8 i.g.g.i.y.8 0 8 8 8 8 i.g.V.",
"g.g.g.g.g.g.g.g.y.8 5 5 5 5 8 i.g.i.1 o 1 5 5 6 8 8 e y.y.y.y.i.g.u.y.e 8 u.g.u.y.p 8 1 1 5 3 w 7 5 1 * 6 6 1 6 9 s a.a.i.p.g.V.",
"g.g.g.g.g.g.g.g.8 6 5 5 5 5 8 y.g.i.1 o 1 5 1 5 5 6 6 8 e 8 8 8 s.i.y.8 6 y.u.i.8 5 4 8 8 0 d d 8 2 1 @ 1 3 & > 3 3 p i.g.g.g.a.",
"y.y.y.y.8 8 p y.6 6 6 6 8 8 8 e i.y.6 5 6 6 @ o o @ 1 5 8 6 5 6 8 y.z 6 2 8 8 w 1 1 0 u.i.y.g.j.g.i.8 3 6 6 @ o o @ @ 6 0 y.8 7 ",
"8 8 8 5 1 1 1 5 1 5 6 6 8 8 6 6 6 8 8 8 8 6 @ o o @ 1 3 8 6 4 6 8 8 8 6 1 1 3 w k x a.g.f.a.i.u.i.y.e 8 8 6 $ 1 l x j g 7 6 6 3 ",
"y.8 6 1 o . o o @ 1 5 5 5 1 1 @ 1 5 5 5 5 5 5 6 6 6 8 8 y.8 6 8 8 8 5 1 @ . & w { ( F i y.0 1 @ @ - 5 5 2 1 < N !./.>./ n 8 9 8 ",
"8 6 5 1 1 1 1 1 5 6 8 6 5 1 1 @ 5 6 6 6 5 5 6 y.8 8 6 6 8 8 6 8 z z 6 6 1 @ & w }  .F 5 8 z v g C k , 5 8 4 w b.~..XXX| H 8 8 8 ",
"8 8 8 8 y.i.i.y.8 y.i.i.8 6 6 6 y.i.g.i.8 6 8 8 8 8 5 1 5 5 5 6 i.g.g.g.g.y.8 z P M.c 8 8 b.R./.@.Q j p u.i.0 s.b.G.J.P l 5 5 3 ",
"8 8 8 y.g.g.g.i.8 y.i.i.y.6 8 y.g.g.V.g.i.y.y.y.y.8 5 1 1 5 5 6 u.g.g.a.g.s.e e u.r 4 2 1 b !.XX*.E F z i.i.8 y.e r u.u.8 2 1 5 ",
"5 6 8 y.y.8 6 5 5 6 6 6 6 6 6 5 8 i.g.V.g.g.g.g.g.i.6 5 6 8 8 8 6 8 z i.y.0 6 3 6 6 + o X ; d.J U M.b i 7 5 8 0 a.u.0 3 7 8 8 8 ",
"5 6 8 y.y.8 5 5 5 5 5 6 6 6 6 5 8 y.i.g.g.i.i.i.g.y.6 5 3 6 8 6 5 3 e z y.8 6 1 $ 2 y.d.c w 3 6 s s.0 8 g.m.M.B d.a 2 1 3 0 a y.",
"6 y.i.g.y.8 6 6 6 6 6 8 8 8 8 8 8 6 6 6 6 6 5 1 6 5 & @ 1 6 6 5 0 0 g.g.a 0 0 1 @ z I.[.(.T.M 0 a a 4 l.Q.@X[.!.G 5 @ o 1 0 i.d.",
"6 y.i.i.y.8 y.y.y.i.i.y.y.e y.y.i.8 5 1 1 @ @ o 1 1 @ @ 1 3 6 3 8 8 g.s.8 a.m.m.M Z.{.:X=XXX^ Z x 8 1 b.[.,X-X).G , @ @ 1 9 i.d.",
"5 5 6 6 8 y.g.g.g.g.g.g.y.y.i.g.f.i.6 1 1 1 1 1 6 6 6 6 8 8 8 6 7 7 z y.p C.`.+X XoX%X&Xt.q.<.E J a.0 B.1.r.e.=.G 7 6 6 4 9 0 y.",
"1 1 1 1 5 6 y.i.i.i.i.y.8 e i.g.g.i.6 5 1 1 5 5 6 8 8 8 y.y.8 8 5 1 2 ; 1 n.}.<X X.X>.;.<.<.$.[ G a 9 b ` #.O.W v 8 d i.y.y.y.y.",
"1 1 1 @ @ @ @ 1 5 5 5 1 1 5 6 8 y.y.8 6 1 1 1 1 1 6 8 8 8 8 8 8 : ; $ @ o 5 x.D.N.A.F.H.J.K.~ Y 7 ; # 1 y h j y 7 8 u.g.g.f.s.g.",
"6 6 6 5 1 @ o o 5 1 @ @ 1 5 6 6 8 y.y.r 6 5 5 3 1 5 8 8 8 8 8 6 6 w g g g l l p a 0 u.p.i.i.t u.d.c x w > # * & , 8 u.g.l.h.s.g.",
"i.g.i.g.g.8 1 1 y.y.8 6 6 8 y.g.g.g.g.i.y.8 6 6 6 8 8 8 e 6 5 6 i.m.^._.>.` n 0 u.s.i.8 p 1 @ y.U.+X XY.k.% : 3 8 8 8 i.h.g.8 3 ",
"g.g.g.g.V.g.8 6 g.i.y.8 y.g.g.V.g.g.g.g.i.y.y.y.y.y.8 8 y.y.6 6 i.A.~..X3...J a 0 r z 6 2 5 v F.;X>X*X4._ V l 8 y.y.y.a.g.s.8 5 ",
"y.y.y.g.g.g.y.8 y.y.y.y.g.g.g.V.g.g.i.y.8 y.i.g.g.i.6 6 y.i.y.8 y.d.M.F.H.Z.b 6 1 5 6 4 2 b R..Xw.q.9.7.*.W A 8 s.g.x.x.x.g.0 4 ",
"5 6 8 y.i.i.y.8 8 8 8 8 y.i.i.i.g.i.y.8 6 8 g.g.g.i.6 6 y.i.y.6 6 2 8 0 d s.a z j j 7 5 1 b R./.+.O.X.%.&.E A 6 0 u.s.f.g.a.a 8 ",
"@ 1 6 8 8 8 8 8 8 8 5 1 1 1 1 5 3 6 8 8 6 6 e i.i.8 5 5 5 6 6 1 ; 1 8 8 8 8 z k.{ ) n > @ > l j m A Y ~ ~ F , O & 1 9 0 8 6 3 3 ",
"@ 1 6 8 5 5 8 8 8 8 6 5 1 @ @ @ 3 6 8 8 6 6 6 8 y.y.8 6 5 5 6 5 1 > 3 8 5 1 w J } ] F 5 1 * @ * 2 6 0 t u.u.b v f k z 0 8 6 3 5 ",
"6 6 r y.6 6 8 8 8 y.i.g.g.y.6 6 8 8 8 8 8 8 p y.g.g.g.i.8 8 i.i.8 6 0 d d 0 7 l H G d.i.i.i.r i.i.e & o * k.T.,.+.R L b.i.r z 8 ",
"y.8 y.y.8 8 8 6 8 i.g.g.g.i.8 8 8 8 8 8 8 8 8 8 i.i.g.i.6 8 g.g.y.p 8 8 7 8 2 9 2 8 g.V.v.v.g.n.L.L.b.d.d.J.oX#X0.=._ M.g.i.r 6 ",
"8 y.g.i.6 5 5 5 6 i.g.g.i.8 6 5 5 5 8 y.y.6 1 o 1 1 5 5 @ 5 i.g.y.8 2 2 1 > - O # 1 d.n.V.s.8 k.~.OX@X].'..X5.r.e.6.*.E L 0 6 3 ",
"6 y.g.g.8 5 5 1 4 r g.g.y.8 5 5 3 5 6 8 8 6 1 @ o o @ @ . 1 i.g.y.e 8 6 5 7 x m f h b a.g.y.7 b ~.OX:X-X*X$X4.;.:.$.@.Q F 8 6 5 ",
"5 8 g.g.y.5 5 1 5 6 8 y.8 6 5 1 1 1 5 6 8 8 6 5 @ @ 1 1 @ 6 g.g.h.d.d.y.0 b.T.,.o.R F a t r 8 a.N.P.<.8.8.=.Q A M S D F c 8 6 7 ",
"1 6 y.i.8 6 5 5 5 6 8 8 8 8 6 5 5 5 5 6 8 y.y.8 6 6 8 6 6 y.g.g.h.a.d.y.0 n.W.|.-.' K y.t t 8 s u.P ' o.%.' F 9 % 1 6 8 8 8 e z ",
"6 6 6 6 6 6 8 8 8 8 8 8 8 8 8 8 6 8 8 8 8 8 8 8 i.i.g.i.i.g.g.g.i.8 8 8 5 z G ! ~ T c.g.g.i.e e 0 b I ~ ~ P z 2 1 5 5 5 5 3 8 0 ",
"y.6 6 5 5 6 8 8 8 8 8 8 8 8 8 8 8 r y.y.y.y.y.y.g.g.g.g.g.g.g.g.y.8 6 6 5 5 8 a u.s.g.x.g.s.i.r e y.u.g.f.p.r e 7 3 2 5 6 8 r y.",
"y.8 6 6 6 8 e 8 8 8 8 6 3 5 5 3 8 y.i.g.g.i.i.y.y.y.8 8 y.i.y.y.z 0 8 6 8 8 8 0 0 y.y.e 6 0 u.s.d 0 0 r r r r a d 9 9 0 u.g.g.g.",
"8 8 8 y.e y.y.8 y.8 8 6 5 1 1 5 8 y.g.z.V.g.y.8 8 6 5 1 6 8 8 8 7 y.y.8 z e 8 8 8 z 8 4 1 8 a.x.a.p 8 y.8 8 p p e e e i.g.x.l.g."
};
