/* XPM */
static char *_27d31540286413cdd624b542b6e8e84yL7CpU0DA9Nru9GS[] = {
/* columns rows colors chars-per-pixel */
"64 64 196 2 ",
"   c #756C5B",
".  c #7C745B",
"X  c #656667",
"o  c #6B6A66",
"O  c #656669",
"+  c #676869",
"@  c #6D6D6D",
"#  c #736D64",
"$  c #726F6A",
"%  c #717167",
"&  c #7A7161",
"*  c #75736C",
"=  c #7B736D",
"-  c #6D6E71",
";  c #6F7071",
":  c #747474",
">  c #7C7672",
",  c #777877",
"<  c #7D7A74",
"1  c #757679",
"2  c #777879",
"3  c #7C7C7C",
"4  c #A77B2B",
"5  c #A77D32",
"6  c #A97F34",
"7  c #8A6F41",
"8  c #8C7346",
"9  c #8F764A",
"0  c #917749",
"q  c #91784A",
"w  c #847457",
"e  c #8A7952",
"r  c #85755A",
"t  c #8A7A5C",
"y  c #977E58",
"u  c #807563",
"i  c #847966",
"p  c #8D7C63",
"a  c #81766B",
"s  c #857B6B",
"d  c #8C7E6A",
"f  c #917D63",
"g  c #917F68",
"h  c #817770",
"j  c #827B75",
"k  c #837E7A",
"l  c #937F70",
"z  c #AC822B",
"x  c #B7872F",
"c  c #A78837",
"v  c #BA8B34",
"b  c #AE913F",
"n  c #BF9038",
"m  c #C88F1A",
"M  c #E29A0F",
"N  c #DCA21D",
"B  c #EFAA14",
"V  c #F6B51F",
"C  c #C68F2B",
"Z  c #C9932A",
"A  c #D49629",
"S  c #D6992B",
"D  c #C1913B",
"F  c #D3A12A",
"G  c #D9A732",
"H  c #DBA933",
"J  c #E7AE2E",
"K  c #EDBA26",
"L  c #F6B72D",
"P  c #EEBD3A",
"I  c #F0BF3B",
"U  c #DBC13D",
"Y  c #EEC42F",
"T  c #EDC72F",
"R  c #95844C",
"E  c #87815B",
"W  c #8D855B",
"Q  c #998359",
"!  c #A69859",
"~  c #BDB656",
"^  c #858364",
"/  c #898565",
"(  c #8C8A66",
")  c #898768",
"_  c #8B896B",
"`  c #998567",
"'  c #958268",
"]  c #9B856D",
"[  c #928E6D",
"{  c #99926A",
"}  c #858175",
"|  c #8C8375",
" . c #8B8B75",
".. c #83827C",
"X. c #8A847D",
"o. c #8A8A7E",
"O. c #958375",
"+. c #9A8472",
"@. c #948B72",
"#. c #9C8C72",
"$. c #938679",
"%. c #9B8779",
"&. c #928A7D",
"*. c #9B897D",
"=. c #959272",
"-. c #9A9376",
";. c #9A9875",
":. c #929279",
">. c #9E9C7B",
",. c #A28567",
"<. c #A38A6B",
"1. c #A5936E",
"2. c #A58B77",
"3. c #AC8B71",
"4. c #A68D7C",
"5. c #A98D7A",
"6. c #A19072",
"7. c #A19970",
"8. c #AC907D",
"9. c #B49378",
"0. c #B4947B",
"q. c #A9A26B",
"w. c #BFAD6C",
"e. c #A7A17C",
"r. c #C39441",
"t. c #C89941",
"y. c #CBBB48",
"u. c #D1BF4C",
"i. c #C0B956",
"p. c #C3BB5B",
"a. c #E4B546",
"s. c #DCC444",
"d. c #DDC649",
"f. c #C9C15F",
"g. c #D6C551",
"h. c #E1C842",
"j. c #E3CA49",
"k. c #EED952",
"l. c #FFE54E",
"z. c #FFEA50",
"x. c #DCD566",
"c. c #DCD76A",
"v. c #E2DB6B",
"b. c #EEE067",
"n. c #FAE67B",
"m. c #FFEC79",
"M. c #7E7E81",
"N. c #7F8082",
"B. c #838383",
"V. c #838486",
"C. c #868686",
"Z. c #8A8683",
"A. c #8D8983",
"S. c #848689",
"D. c #868789",
"F. c #87888A",
"G. c #898989",
"H. c #8B8B8B",
"J. c #938B86",
"K. c #948D88",
"L. c #988F89",
"P. c #979388",
"I. c #96938B",
"U. c #8F8F90",
"Y. c #909090",
"T. c #939598",
"R. c #A28E80",
"E. c #AD9483",
"W. c #AD9A8F",
"Q. c #B39681",
"!. c #B79A82",
"~. c #BB9B84",
"^. c #B19989",
"/. c #BD9F89",
"(. c #A0A086",
"). c #B7A396",
"_. c #BFBF98",
"`. c #C29E84",
"'. c #C19F89",
"]. c #C1A28D",
"[. c #CBA589",
"{. c #CFA98C",
"}. c #C5A793",
"|. c #C5A997",
" X c #CCAB95",
".X c #C7AA98",
"XX c #CDB09D",
"oX c #D6B39A",
"OX c #D8B39A",
"+X c #BEC099",
"@X c #C6C79C",
"#X c #DDDC92",
"$X c #E4D483",
"%X c #F0E68D",
"&X c #FFFB84",
"*X c #C9C9A0",
/* pixels */
"Y.H.B.3 3 B.H.H.C.3 , : : , 3 3 , @ + + : : : , 3 B.H.Y.H.H.H.Y.H.H.B.3 3 B.H.H.C.3 , : : , 3 3 , @ + + : : : , 3 B.H.Y.H.H.H.U.",
"H.H.B.3 3 B.H.C.3 , , , , 3 B.B.3 , : @ , , , , 1 , B.C.H.H.H.H.H.H.B.3 3 B.H.C.3 , , , , 3 B.B.3 , : @ , , , , 1 3 B.D.H.H.H.H.",
"B.B.B.3 , , B.3 : : B.H.H.H.H.H.H.C.3 , , 3 3 1 ; @ @ , 3 B.3 3 B.B.B.3 , , B.3 : : B.H.H.H.H.H.H.C.3 , , 3 3 , - @ - : 3 B.3 , ",
"3 3 3 , : : , , = > B.H.H.H.C.C.C.B.3 3 3 , , < j a = = 3 3 , , 3 3 3 , : : , = r t X.H.H.H.C.C.C.B.3 3 3 3 , < / W e r j 3 , , ",
"3 3 , : @ + + = l O.k 3 B.3 , - : : , , , : @ j E.~.2.O.k 3 3 3 3 3 , : @ + @ r x v / 3 B.3 : - ; : , , , : - / p.s.F v ' M.3 3 ",
"B.B.3 , : - @ > %.*.k , , < j = # # : , , : + h E.].Q.*...3 3 3 B.B.3 , : - @ t D D p 1 1 < / E .   * , : ; @ / p.j.H D ' 3 3 3 ",
"H.H.H.H.C.B., k J.J.B.1 - j E.0.f . > , , : : , X.J.L.J.3 , , , C.H.H.H.C.B.3 j #.#.X.1 - / p.y.c 7 a 3 , : : , =.7.1.#.j , , , ",
"H.H.H.H.H.C.3 3 C.C.3 : + > E.!.] s < , : - ; , 3 V.D.C., , , , C.H.H.H.H.C.3 M.D.V.3 ; O ^ p.u.b 0 s , : @ - : 3 B.D.V., , , , ",
", 3 B.B.3 , , , , , @ + X @ j X.A.X.3 : @ + + : B.D.3 , , 3 3 , , 3 B.B.3 , , , , 1 - X X $ _ { @.| < : @ X X : B.D.M.3 3 3 3 , ",
", , 3 B., , : @ @ : j j j > , 3 C.C., : > h = > B.B., : , 3 B.B., , 3 B., : : @ - , .. .( ^ , 3 D.V., : .. .( _ o.B., : , 3 B.B.",
", 3 C.H.B., @ X X < W..X].E.X.3 B.3 @ > E.!.5.O.k , @ @ : 3 C.H.3 3 C.H.B., @ X X ..+X#Xx.p.@.M.N.3 @ X._.#Xx.p.[ : @ @ : 3 C.H.",
"3 B.H.H.B.k k j j *.}.OX{.0.$.k ..3 : j !.[.9.+.j , - @ : , C.H.B.B.H.H.B...o. .( q.$Xm.l.h.! s ..3 - :.#X&Xz.d.{ 1 - @ : , C.H.",
", , B.B.3 J.).|.]././.0.<.f t s Z.C.3 X.8.9.` p X.C.3 , , 3 B.3 , , B.B.M.I.@X#Xx.j.P L V N z q | D.M.;.c.z.T G 1.B.3 , , 3 B.B.",
": , , 1 , Z.).XX|./.E.%.g r r i X.N., < O.+.p d X.H.C.B.B.B.B.3 , : , 1 1 P.*X#Xv.d.G A A C 4 8 j M.1 _ p.d.G r.@.D.V.B.B.B.B.B.",
", : @ + + , A.L.J.J.J.J.A.X.> * * @ X + = k X.X.3 3 C.H.H.H.H.C., : @ @ @ , P.(.>.7.1.1.1.] i & $ @ X o / { 1.@.j 3 C.H.H.H.H.H.",
": : > h = > 3 B.B.V.H.H.H.B., : < j = $ $ , B.V., , C.H.H.H.H.B., * ^ W e r j N.B.B.H.H.F.N.1 , .. .^ . % 1 N.V., , C.H.H.H.H.H.",
"+ > E.~.2.%.A.H.H.H.C.B.3 , @ < W.|.].4.> @ , , , 3 B.C.H.H.B., @ ^ ~ s.F n @.H.H.H.V.N.3 : @ ..+X#Xx.~ ^ - 1 , , 3 B.C.H.H.3 , ",
"@ j E.].Q.R.K.H.C.B.B., , : > *.|.OX{.0.a # < B.B.B.B.C.H.H.3 : @ ) p.j.H r.#.H.D.B.N., , * ^ q.$Xm.l.U R   , B.B.B.B.C.H.H.3 , ",
", k A.J.L.K.C.3 , : , , , k E.'.'.0.<.y w i K.T.H.H.H.H.H.H.B., , } =.7.7.#.X.M.: : 3 3 , _ p.j.I L V N 4 9 &.T.U.H.H.H.H.H.B., ",
", , 3 N.C.C.3 , = > k 3 : j E.!.5.] p p p | I.T.H.C.H.H.H.C.3 , , , 3 M.D.D.3 = r r j M.: _ p.s.F A A C 6 y I.T.H.C.H.H.H.C.3 3 ",
"@ : , 3 3 , @ = l %.J.B.: @ = j j j X.A.A.A.C.B., , 3 B.3 , , : - : 3 3 3 1 - r x n #.B.: % ^ W t Q <.6.@.$.C.N.1 , 3 B.3 , , , ",
"@ : , 3 , : @ > %.R.K.B.: @ @ : : , B.C.V.C.J.X.* $ 3 B.3 , , : @ : , 3 , : - t D t.6.B.: @ - - : 1 M.D.D.Z.-.[ . # 3 B.3 , , , ",
", , 3 3 3 , , k J.K.C.3 , , B.B.3 1 : - - k ^.Q.f u X.H.H.C.3 3 , , 3 3 3 , , } #.6.X.M., 3 B.B.M.1 ; - - _ p.y.c 8 | H.H.C.M.3 ",
"3 3 3 3 3 , , 3 B.C.B.B.B.C.C.C.J.J.X.j h $./.`.,.p | A.H.H.B.3 3 3 3 3 3 3 , 3 N.D.B.B.B.B.C.A.;.;.:. .) ! h.T m 4 Q &.H.H.N., ",
"3 3 , , , , @ @ - 1 C.H.H.C., j E.}.|.|.]./.~.9.3.] f s X.N., , 3 3 , , , , - @ - 1 C.H.H.B.1 _ p.v.#X#Xc.h.K B M m 4 q } N., , ",
"B.B.3 2 : : > = # * B.H.H.B.: j ^. XoXOX{.~.5.2.4.2.g s j 3 , , B.B.3 1 : * ^ E   & ..H.H.B.: / p.b.%Xn.k.U F A S C 6 q s 3 , , ",
"H.H.H.B.; > E.0.p & j B.B.3 , ..I.W.!.0.<.' | A.J.K.J.Z...3 3 3 C.H.H.N.- ^ i.y.c 7 s B.B.M., ..>.w.a.J Z c Q ` 1.6.#.| ..3 3 3 ",
"H.H.H.B.; j ^./.] s j M.B.B.3 B.D.J.R.%.f s < N.C.H.H.C.3 3 3 B.H.H.H.M.- / f.g.b 0 s M.B.B...B.D.#.r.C 5 9 j N.D.F.H.D.3 3 3 3 ",
"B.B.3 , : 3 K.I.J.Z...B.H.H.B.3 B.C.J.J.J.Z.B.3 , , , , , , 3 B.B.B.3 , : < >.e.-.| ..B.H.H.B.M.N.X.#.<.@.| ..3 3 3 3 , , , 3 3 ",
"3 3 , , , , C.H.H.D.3 3 C.C.C.B.B.C.H.H.H.H.B.3 , , , , , 3 B.B.3 3 , , , , C.H.H.H.M.3 C.C.C.B.B.C.H.H.H.H.B.3 , , , , , 3 B.B.",
"3 3 3 , , 3 B.B.B.N., , , 3 C.H.H.H.C.B.B.B.B.3 3 3 , 3 C.H.H.H.B.3 3 3 3 3 M.B.B.N., , , 3 D.H.H.H.C.B.B.B...3 3 , , 3 C.H.H.H.",
"B.B.B.B.B.B.B.B.3 , , : : , C.H.H.C.3 , , 3 3 , , , 3 B.H.H.H.H.C.B.3 3 B.B.B.B.B., , : : , C.H.H.C.3 , , , 3 3 3 3 3 B.H.H.H.H.",
"H.H.H.H.H.H.H.H.B., , : : , 3 B.3 , @ @ : , , : @ @ , B.B.B.B.C.H.C., , C.H.H.H.B., , : : , 3 B.3 , @ @ : , , , 3 3 3 3 B.B.B.B.",
"H.H.H.H.H.H.H.H.B., , , , , 3 3 , : @ @ , , : @ X + , 3 3 3 , 3 H.C., , B.H.H.H.B., , , , , 3 3 , : ; @ : : : : , , , 3 3 3 3 , ",
"B.B.B.B.3 3 B.B., , , 3 3 3 3 3 3 , , , 3 , @ + X + : , 3 3 , , B.B.3 , , 3 B.B., , , 3 3 3 3 3 3 , , , 3 , @ + + @ : , 3 , , , ",
"3 3 3 , , , , , , , 3 3 3 , , , , , 3 3 3 , @ + X + : , 3 3 , , 3 3 3 , : : , , , , , 3 3 , , , , 3 3 3 3 , : @ @ @ : , 3 3 2 , ",
"3 3 , , , 2 @ @ : , , 3 , : $ @ : , , , , , : @ + @ , 3 3 3 3 3 3 3 , , @ + + @ : , , , , : @ @ , , , , , , , , , , , 3 3 3 3 3 ",
"3 3 , , B.B., : , , B.3 , : @ ; , , , , , , , , @ : , 3 3 3 3 3 3 3 , , : : : : , , , , , : @ $ : , , , , , 3 3 B.3 3 3 3 3 3 , ",
"3 3 3 3 H.H.C.B.3 B.H.H.B., , 3 C.H.H.C.3 , , , , , , , , , , , 3 3 3 3 B.C.C.B.3 3 C.C.3 , , , , 3 C.C.3 3 3 3 k 3 , , , , , , ",
", 3 3 B.H.H.H.H.B.3 C.C.B.3 3 B.H.H.Y.H.C.B.B.B.C.3 , , , , , , , 3 3 B.H.H.H.C.3 3 C.C.B.3 3 3 3 B.H.H.C.B.B.B.B.3 , : : : , , ",
", , 3 3 B.C.H.H., , , , 3 3 , , 3 C.H.H.H.H.H.H.H.C., , , 3 , , , , 3 B.B.B.3 , , , , , 3 3 , , 3 B.H.H.H.H.H.H.H.C., : : : , , ",
", , B.B.3 B.H.C., : : , 3 3 , , 3 B.C.H.H.H.C.C.H.B., : , 3 B.3 , , 3 B.B.3 , , , , , , 3 3 , , 3 B.C.H.H.H.C.C.H.B., : : , M.B.",
", B.H.H.B.3 B.B.3 , , 3 3 3 3 3 3 3 , , , , : : , , @ @ : 3 C.C.3 3 C.H.B.3 3 , , , , 3 3 3 3 3 3 3 , , , , : : , , @ @ , 3 C.H.",
"3 B.H.H.B.3 B.B.B.B.B.B.3 3 B.B.B.3 , : : : + @ : , @ @ : , C.H.3 3 C.H.B.B.B.B.B.B.B.B.3 3 B.B.B.3 , : : : + @ : , : , , B.H.H.",
", , B.B.B.B.H.H.H.H.H.C., , C.H.H.C., : : : ; : , , , , 3 3 B.B., , 3 B.B.B.H.H.H.H.H.C., , C.H.H.C., : : : : : , 3 B.C.B.k B.B.",
": , , , , , B.C.H.H.C.B., , B.H.H.C., , : : : , , 3 3 3 B.B.M., , , , , , , B.C.H.H.C.B., , B.H.H.C., , : , , , , B.H.H.B.3 3 3 ",
": : , : @ @ @ : , , : : : , , 3 M.M.3 , : : : , , , 3 3 B.B.k , , : , : @ + @ : , , : : : , , , M.B.3 , : , C.C., , B.B.B.3 3 3 ",
", , , 2 : @ @ @ , , @ @ : , , , 3 k 3 , , , , , , , 3 3 3 3 3 3 , , , , : @ @ : , , @ @ : , , , M.B.B.3 , , C.C., , , 3 3 3 3 3 ",
"H.H.H.H.C.B., , B.C.3 , , 3 C.H.H.C., , , 3 3 , , 3 3 3 3 3 , , B.H.H.H.C.B., 3 C.C.3 , , 3 C.H.H.H.H.C.3 3 B.B.3 , , , , 3 , , ",
"H.H.H.H.H.H.B.B.H.H.B.B.B.C.H.Y.Y.H.3 , 3 B.B.B.B.B.B.B.B.3 , , C.H.H.H.H.H.B.B.H.H.B.B.B.C.H.Y.Y.H.H.H.B.3 B.B.B.B.3 3 B.3 , , ",
"B.B.B.C.H.H.B.3 B.B.B.B.H.H.Y.Y.Y.H.B., 3 B.H.H.H.H.H.H.H.C.3 3 B.B.B.C.H.H.B.B.B.B.B.B.H.H.Y.Y.Y.H.C.B.3 B.H.H.H.H.H.H.H.C.B., ",
", , 3 B.C.C.B.3 , , , 3 B.C.C.C.H.C.B.3 , 3 C.H.H.H.H.H.H.C.3 , , , 3 B.C.C.B.3 3 , , 3 B.C.H.H.H.C.B.3 3 3 C.H.H.H.C.C.C.C.3 , ",
"@ : , 3 , , 3 , , , , , : : : : , , 3 3 , , 3 B.B.B.3 , , , , : @ : , 3 , , 3 3 , , , , : : , , , 3 3 3 , , 3 B.B.3 : : , , , , ",
"@ : , 3 , , 3 3 , , , , : @ @ @ , , 3 3 , , , 3 B.B.3 , , , , , : : , 3 , , 3 3 , , , , : : , , , , 3 3 , , 3 B.B.3 : @ , , , , ",
", , 3 3 3 3 3 3 3 3 C.H.C.B., , 3 3 3 3 3 3 3 B.H.H.H.C.3 3 C.C.3 , 3 3 3 3 3 3 3 3 C.H.C.B.3 , 3 3 3 3 3 , 3 B.H.H.C.B.3 3 C.H.",
"3 3 3 3 3 3 3 3 3 B.H.H.H.H.B.3 3 3 3 3 3 3 , 3 C.H.H.C.3 3 C.C.B.3 3 3 3 3 , 3 3 B.H.H.H.H.B.3 3 3 3 3 3 3 , , B.C.H.C.3 3 C.H.",
"3 3 , , , , , , 3 B.H.H.C.B., , , , 3 3 k , : : 3 B.3 , : : , , 3 3 , , , , , , 3 B.H.H.C.B., , , , 3 3 B., : @ : , , , : : , , ",
"B.B.3 , 2 , , , , B.C.H.B., , : : , , 3 3 , : @ 1 , , : + @ , 3 B.B.3 , 1 , , , , B.H.H.B., , : : , , 3 3 , : @ @ @ : @ + @ , , ",
"H.H.H.C.k , , : , , 3 B.B., , : : : , , 3 3 , , , , : : : , B.H.H.H.H.C.B., , : : , H.H.B., , : : : , , 3 3 , , , , , : : , B.H.",
"H.H.H.C.3 , , , , , 3 3 3 3 2 , , , , , , 3 3 3 , , , , , B.H.H.H.H.H.C.B., , , , , C.H.B.3 , , , , , , 3 3 3 3 3 3 3 , , B.H.Y.",
"B.B.3 , , , , 3 3 3 3 3 B.3 3 3 3 3 , , , , 3 B.C.H.H.H.H.H.H.H.C.B.3 , , , , 3 , 3 B.B.B.3 3 , , , , 3 3 3 M.3 3 B.C.H.H.H.H.Y.",
"3 3 , , , , 3 3 3 3 3 3 3 3 3 3 3 B.B.B., , 3 B.H.H.H.H.H.H.H.H.B.3 , , , , 3 3 3 3 3 3 3 3 , 3 3 3 B.B.B.B.3 3 3 B.C.H.H.H.H.H.",
"3 3 3 , 3 3 3 3 3 3 3 3 3 3 , , 3 B.H.H.H.C.B.3 B.B.3 3 B.B.B.B.3 3 3 , 3 3 3 3 3 3 3 3 , , , , , B.H.H.H.H.B.3 3 3 , 3 B.B.B.B.",
"3 3 3 3 B.M.3 3 3 3 3 3 3 3 , , , B.H.U.Y.H.B.3 3 , , , , 3 3 3 3 3 3 3 3 3 3 k 3 3 3 3 , , : , , B.H.Y.Y.H.B.3 3 3 , , , 3 3 3 "
};
