/* XPM */
static char *_f198baf29df47abf806e172c1e1e0e4niFyUvAUeV2SkOlc[] = {
/* columns rows colors chars-per-pixel */
"64 64 168 2 ",
"   c #796F55",
".  c #736B5E",
"X  c #7B755A",
"o  c #656567",
"O  c #6D6C65",
"+  c #656669",
"@  c #6C6C6D",
"#  c #756D60",
"$  c #716F6A",
"%  c #717167",
"&  c #797162",
"*  c #75746C",
"=  c #7C776E",
"-  c #6D6E71",
";  c #6F7072",
":  c #747474",
">  c #7A7775",
",  c #777877",
"<  c #7D7C73",
"1  c #757679",
"2  c #777879",
"3  c #7C7C7C",
"4  c #A57B2A",
"5  c #A97C2C",
"6  c #A77D32",
"7  c #A97F34",
"8  c #8A6F41",
"9  c #8C7346",
"0  c #8F764A",
"q  c #917749",
"w  c #91784A",
"e  c #847457",
"r  c #8A7952",
"t  c #85765A",
"y  c #8A7A5B",
"u  c #997F51",
"i  c #8C7D63",
"p  c #807769",
"a  c #847B6E",
"s  c #837D74",
"d  c #AC822B",
"f  c #B7872F",
"g  c #A38534",
"h  c #A28638",
"j  c #AD8D39",
"k  c #B78830",
"l  c #BA8B35",
"z  c #BC8D38",
"x  c #AE913F",
"c  c #BF9038",
"v  c #CA8A17",
"b  c #C6931D",
"n  c #E29A0F",
"m  c #DCA21D",
"M  c #EFAA14",
"N  c #F6B51F",
"B  c #C68F2B",
"V  c #CF9123",
"C  c #C7902E",
"Z  c #C8922E",
"A  c #C69928",
"S  c #D49629",
"D  c #D6992B",
"F  c #C1913B",
"G  c #D3A12A",
"H  c #D7A633",
"J  c #D9A732",
"K  c #DEAB33",
"L  c #E7AE2E",
"P  c #EDBA26",
"I  c #F6B72D",
"U  c #EEBD3A",
"Y  c #F0BF3B",
"T  c #DBC13D",
"R  c #EDC72F",
"E  c #FAC628",
"W  c #E2C236",
"Q  c #95844C",
"!  c #87815B",
"~  c #8D855B",
"^  c #998359",
"/  c #A89E57",
"(  c #A3925A",
")  c #BCB556",
"_  c #858364",
"`  c #898565",
"'  c #8C8A66",
"]  c #898768",
"[  c #8B896B",
"{  c #9B8867",
"}  c #958569",
"|  c #928E6D",
" . c #97916B",
".. c #9A936A",
"X. c #858075",
"o. c #8C8476",
"O. c #8B8B75",
"+. c #83827B",
"@. c #8B867D",
"#. c #8A8A7E",
"$. c #948B72",
"%. c #9C8D72",
"&. c #908779",
"*. c #928A7D",
"=. c #949272",
"-. c #9A9376",
";. c #9A9875",
":. c #929279",
">. c #9E9C7B",
",. c #A18E6C",
"<. c #A5936E",
"1. c #A19072",
"2. c #A19970",
"3. c #A9A26B",
"4. c #BFAD6C",
"5. c #A7A17C",
"6. c #C39441",
"7. c #C89941",
"8. c #CBBA46",
"9. c #CCBD4C",
"0. c #D1BF4C",
"q. c #C0B956",
"w. c #C3BB5B",
"e. c #E4B546",
"r. c #DCC444",
"t. c #DDC649",
"y. c #C9C15F",
"u. c #D6C551",
"i. c #E0C542",
"p. c #E2CA43",
"a. c #E3CA49",
"s. c #EED952",
"d. c #FFE54E",
"f. c #FFEA50",
"g. c #DCD566",
"h. c #DCD76A",
"j. c #E2DB6B",
"k. c #EEE067",
"l. c #FAE67B",
"z. c #FFEC79",
"x. c #7D7E81",
"c. c #7F8083",
"v. c #838383",
"b. c #868686",
"n. c #888684",
"m. c #8B8B84",
"M. c #848589",
"N. c #87888B",
"B. c #888888",
"V. c #898A8B",
"C. c #8B8B8B",
"Z. c #8C8C8C",
"A. c gray56",
"S. c #929387",
"D. c #979487",
"F. c #8F8F90",
"G. c #909191",
"H. c #939598",
"J. c #A0A086",
"K. c #BFBF98",
"L. c #BEC099",
"P. c #C6C79C",
"I. c #DDDC92",
"U. c #E4D483",
"Y. c #FAE982",
"T. c #FFFB84",
"R. c #E5E397",
"E. c #C9C9A0",
/* pixels */
"G.C.v.3 3 v.C.Z.b.3 , : : , 3 3 , @ + + : : : , 3 v.Z.G.Z.Z.Z.Z.Z.Z.Z.Z.Z.G.Z.C.v.2 , : : , 3 3 , @ + + : : , , 3 s s 3 3 3 v.v.",
"C.C.v.3 3 v.C.b.3 , 2 2 2 3 v.v.3 , : @ , , , , 1 3 v.M.C.C.C.C.C.C.C.C.C.C.C.C.b.3 2 , , , 3 3 , : @ @ , , : : , 2 2 3 3 3 3 3 ",
"v.v.v.3 2 2 v.3 : : v.C.C.C.C.C.C.b.3 2 2 3 3 1 - @ - : 3 v.3 3 v.v.v.v.3 3 v.b.C.C.v.2 2 3 3 3 3 2 2 2 2 2 $ + + @ : 2 3 3 2 1 ",
"3 3 3 2 : : , = t y @.C.C.C.b.b.b.v.3 3 3 3 2 < ` ~ r t s 3 , 2 3 3 3 2 : : , 3 b.b.3 2 3 3 2 2 2 3 2 2 3 , @ + + @ : 2 3 3 2 1 ",
"3 3 2 : @ + @ t k l ` 3 v.3 : - ; : , , , : - ` w.r.G l } x.3 3 3 3 2 : @ + @ : , 2 , , , , @ @ : , , , : : : : , 2 2 3 3 3 3 3 ",
"v.v.3 2 : - @ y F F i 1 1 < ` !   . * , , ; @ ` w.a.K F } 3 3 3 3 3 2 , : : @ @ : , 2 2 > : @ : , 2 2 , , , , 2 3 3 3 3 3 3 3 3 ",
"C.C.C.C.b.v.3 s %.%.+.1 - ` w.8.g 8 p 3 , : : > =.2.<.%.s , , 2 3 3 3 3 v.v.3 2 2 3 b.b.s 2 2 3 b.C.n.b.3 2 3 3 3 3 , , , , , , ",
"C.C.C.C.C.b.3 x.M.M.3 : + _ w.0.x q a 2 : @ - : 3 v.M.M.2 , , , 2 2 3 v.C.C.s 2 2 3 b.b.v.3 3 v.C.Z.Z.Z.b.v.v.b.v.3 , : , , , , ",
"2 3 v.v.3 2 , , 2 1 - o o $ ]  .$.o.< : @ o o : v.M.x.3 3 3 3 2 , , 3 v.v.3 2 , , > 2 3 3 3 2 2 3 b.Z.Z.Z.Z.Z.Z.Z.b.2 , 2 3 3 2 ",
", 2 3 v.2 : : @ - , +.O.' _ > 3 M.b., : +.O.' ] #.v., : 2 3 v.3 2 2 3 v.3 2 , , , , , 2 3 3 2 , 3 v.b.C.n.n.b.b.C.v., : 2 3 v.v.",
"2 3 b.C.v., @ o o +.L.I.g.w.$.x.c.3 @ +.K.I.g.w.| : @ @ : 3 b.C.3 3 b.C.v.3 2 2 2 2 2 3 3 3 3 3 3 3 2 2 2 > : : 2 , @ @ : 3 b.Z.",
"3 v.C.C.v.+.#.O.' 3.U.z.d.i.( a +.3 - :.I.T.f.t...1 - @ : 2 b.C.v.v.C.C.v.3 v.v.v.v.v.v.3 3 v.v.v.3 , : : $ + + : : + + : 3 b.Z.",
", 2 v.v.x.D.P.I.g.a.U I N m d w o.M.x.;.h.f.E J <.v.3 2 2 3 v.3 2 2 v.v.3 v.n.Z.C.Z.Z.b.3 2 b.Z.Z.b.2 : : : : : 2 , o o , 3 v.v.",
": , 1 1 1 S.E.R.j.t.H S S B 4 9 s x.1 [ w.t.J 6.%.M.M.v.v.v.v.3 , , 2 3 3 s v.b.b.C.b.v., , v.C.C.b.2 , , : : , 2 , @ @ 2 3 3 3 ",
": : @ @ @ , S.J.>.2.<.<.<.{ i & $ @ o O ` ..<.%.s 3 b.Z.C.C.Z.b.2 : : , 3 2 , : , 2 : : : : 2 3 v.v.3 2 , : : : , , , 2 3 3 3 3 ",
"; * _ ~ r t s c.v.v.N.C.N.c.1 , +.O._ X % 1 c.v.2 2 b.Z.Z.Z.C.b.3 2 2 2 3 2 : @ , 2 : : , , , 2 3 v.v.v.2 , , , , 2 3 3 3 3 3 3 ",
"o _ ) r.G z %.C.C.C.M.c.3 : @ +.L.I.g.) _ - 1 2 2 3 v.b.Z.C.3 3 b.C.C.b.v.3 2 3 v.C.b.v.3 2 2 3 b.C.Z.C.v.3 2 2 2 3 3 3 3 3 2 , ",
"@ ] w.a.K 6.%.C.M.v.c.2 , * _ 3.U.z.d.T Q . > v.v.v.v.b.Z.C.2 2 b.Z.Z.C.b.v.3 v.C.Z.Z.C.v.3 v.b.Z.Z.Z.C.v.v.v.v.v.v.v.v.v.v.2 , ",
"2 +.=.2.<.%.@.x.: : 2 3 , [ w.a.Y I N m 4 0 *.H.F.C.C.Z.Z.C.v.3 v.v.v.b.C.C.v.3 v.v.v.v.2 2 b.Z.G.Z.b.v.s v.C.Z.C.C.C.Z.Z.b.v.2 ",
"2 2 3 x.M.M.3 = e t s x.: ] w.r.G V S C 7 u D.H.C.b.C.C.C.b.3 2 2 2 3 v.b.b.v.3 2 2 2 2 : , v.b.C.b.v.3 3 3 b.Z.C.C.C.C.C.b.3 2 ",
"@ : 2 3 3 1 - t f c %.v.: % _ ~ y ^ ,.1.%.o.n.c.1 , 3 v.3 2 > : @ : 2 3 2 2 3 3 , , , : @ + @ : 2 2 3 3 2 2 3 v.v.v.2 2 2 2 , , ",
"@ : 2 3 2 : - y F 7.1.v.: @ - - : 1 x.M.M.m.-.| X # 3 v.3 2 , : @ : 2 3 2 2 3 3 , , , , : @ @ @ : 2 3 3 2 , 2 3 v.v.3 2 , , 2 2 ",
"2 2 3 3 3 2 2 X.%.1.@.x.2 3 v.v.x.1 ; - - [ w.9.h 9 o.C.C.b.3 2 2 2 3 3 3 3 3 3 2 3 b.b.b.v.3 2 2 3 3 3 3 3 3 v.C.C.C.b.3 3 b.C.",
"3 3 3 3 3 3 2 3 c.M.v.v.v.v.b.m.;.;.:.O.] / p.R b 5 ^ &.m.N.c.3 3 3 3 3 3 3 3 3 v.b.Z.Z.Z.C.v.3 3 3 3 3 3 3 2 2 v.b.C.b.3 3 b.C.",
"3 3 2 , , , - @ - 1 b.Z.Z.M.1 ] w.j.I.I.h.p.P M n v 5 w X.c.2 2 3 3 2 , , 2 3 v.C.Z.Z.Z.b.v.2 , , 2 3 3 3 2 : @ @ : , , : @ , 2 ",
"v.v.3 2 : * _ !   & +.Z.Z.v.: ` w.k.Y.l.s.W G S D Z 7 w a 3 , 2 3 v.3 2 , , 2 3 b.C.C.C.v.3 , : , , 2 3 3 2 : + o + @ * + @ , 2 ",
"Z.Z.C.c.- _ q.8.g 8 a v.v.x.2 +.>.4.e.L A j ^ { <.1.%.o.+.3 3 3 b.C.C.b.3 2 , , , 2 v.v.v.2 , : : , , 2 3 3 2 , : @ : : @ , v.C.",
"Z.Z.C.x.- ` y.u.x q a x.v.v.+.v.M.%.6.B 6 0 s c.M.N.N.b.3 3 3 v.C.C.C.b.3 2 , , , , 3 3 3 3 2 , , , , 2 3 s s 3 2 2 2 2 2 3 C.G.",
"v.v.3 , : < >.5.-.o.+.v.C.C.v.x.c.@.%.,.$.o.+.3 3 3 3 2 , , 3 v.v.v.3 2 1 1 2 3 2 3 3 3 3 3 3 3 3 3 2 3 3 3 3 v.b.C.C.C.C.C.Z.Z.",
"3 3 , , , 2 b.C.C.N.x.3 b.b.b.v.v.b.N.C.Z.C.v.3 2 , , , 2 3 v.v.3 3 , , , 2 3 v.3 3 3 3 3 2 2 3 3 v.v.b.v.v.x.v.C.C.C.C.C.Z.Z.Z.",
"3 3 3 2 2 3 x.v.v.c.2 , 2 3 b.Z.Z.C.M.v.v.v.v.3 3 2 2 3 b.C.C.C.v.3 3 2 3 3 3 3 3 s 3 3 2 , , , 3 v.C.Z.Z.C.v.x.v.v.3 2 3 b.Z.G.",
"v.v.v.v.v.v.v.v.3 3 , : : 2 b.C.C.b.v.3 3 2 3 3 3 3 3 v.C.Z.Z.C.b.v.v.3 3 v.v.v.v.3 3 2 , : , , 2 3 v.b.C.b.3 3 3 3 2 2 3 b.Z.G.",
"C.C.C.C.C.C.C.n.v.2 , : : , 3 v.2 2 3 3 2 , , 2 3 3 3 v.v.v.v.b.C.C.v.3 3 v.C.C.v.3 2 , : , 2 2 , : : : 2 2 , 2 3 v.b.C.C.Z.Z.G.",
"C.C.C.C.C.C.C.C.s 2 , , , , 3 2 , , 3 3 2 , : : , 2 2 3 3 3 3 3 b.C.v.3 3 v.C.M.3 , 2 2 2 3 v.v.3 , @ @ : , , , 1 3 v.M.C.C.C.C.",
"v.v.v.v.3 3 v.v.2 , 2 3 3 3 3 3 3 3 3 3 3 , @ + + @ : , 3 3 , 2 3 v.v.3 2 2 v.3 : : v.C.C.C.C.C.C.b.3 2 2 3 3 2 - @ - : 3 v.3 2 ",
"3 3 3 2 : : , , , , 2 3 3 2 2 2 2 3 3 3 3 2 : @ + @ : , 3 3 2 2 3 3 3 2 : : , = t y @.C.C.C.b.b.b.v.3 3 3 3 2 < ` ~ r t s 3 2 , ",
"3 3 2 : @ + + @ : , , , , , @ @ : , , , , , 2 2 2 2 2 3 3 3 3 3 3 3 2 : @ + @ t k l ` 3 v.3 : - - : , , , : - ` w.r.G l } x.3 3 ",
"3 3 2 , : : : : , , 2 2 , : @ : , 2 2 2 , 2 3 3 3 3 3 3 3 3 3 3 v.v.3 2 : - @ y F F i 1 1 < ` !   . * , , ; @ ` w.a.K F } 3 3 3 ",
"3 3 3 3 v.b.b.v.3 3 b.b.3 2 2 3 b.C.C.b.3 2 3 3 3 3 2 , , , , 2 b.C.C.C.b.v.3 s %.%.+.1 - ` w.8.g 8 = 3 , : : > =.2.<.%.s , , , ",
"2 3 3 v.C.C.C.b.3 3 b.b.v.3 3 v.C.Z.Z.Z.b.v.v.v.v.3 , : : : : 2 v.C.C.C.C.b.3 x.M.M.3 : + _ w.0.x q a 2 : @ - : 3 v.M.M.2 , , , ",
", , 2 3 v.v.3 2 , , 2 3 3 3 2 2 3 b.Z.Z.Z.Z.C.Z.Z.b.2 : : , 2 3 2 3 v.v.3 2 , , 2 1 - o o $ ]  .$.o.< : @ o o : v.M.x.3 3 3 3 2 ",
", 2 3 v.3 3 , , , , : , 3 3 2 , 3 v.b.C.C.C.b.b.m.v., : : , v.v.2 2 3 v.2 : : @ - , +.O.' _ > 3 M.b.1 : +.O.' ] #.v., : 2 3 v.v.",
"2 3 C.C.v.3 2 2 2 2 : , 2 3 3 3 3 3 2 2 2 2 : : 2 , @ + : 2 b.C.x.3 b.C.v., @ o o +.L.I.g.w.$.x.c.3 @ +.K.I.g.w.| : @ @ : 3 b.Z.",
"3 v.C.C.v.3 v.v.v.v.2 2 2 3 v.v.v.3 , : : : @ @ , : @ @ : 2 v.v.3 v.C.C.v.+.#.O.' 3.U.z.d.i.( a +.3 - :.I.T.f.t...1 - @ : 2 b.C.",
", 2 v.v.v.v.C.Z.C.C.C.b.2 2 b.Z.Z.b.2 : : , , 2 2 2 2 2 3 2 : : , 2 v.v.x.D.P.I.g.a.U I N m d w o.M.x.;.h.f.E J <.v.3 2 2 3 v.v.",
": , 2 3 2 2 v.b.C.C.b.v., 2 v.C.C.b.2 : : , 2 3 3 3 3 3 s 2 : @ : , 1 1 1 S.E.R.j.t.H S S B 4 9 s x.1 [ w.t.J 6.%.M.M.v.v.v.v.v.",
": , 2 2 : @ @ : 2 2 : : : , 2 3 v.3 , : : : , , , , 3 3 3 3 2 , , : @ @ @ , S.J.>.2.<.<.<.{ i & $ @ o O ] ..<.%.s 3 b.Z.C.C.C.C.",
"2 2 3 2 , @ @ : , , @ @ : , 2 3 v.v.2 > , , , , , , 3 3 3 3 3 2 : * _ ~ r t s c.v.v.N.C.N.c.1 , +.O._ X % 1 c.v.2 2 b.Z.Z.Z.C.C.",
"C.b.v.v.v.v.2 3 b.b.3 2 2 3 b.C.C.C.C.b.3 2 2 2 2 3 3 3 3 3 2 : @ _ ) r.G z %.C.C.C.M.c.3 : @ +.L.I.g.) _ - 1 2 2 3 v.b.Z.C.3 2 ",
"Z.C.v.v.Z.Z.v.v.C.C.v.3 v.b.Z.G.G.Z.Z.C.v.3 v.v.v.v.v.v.v.v.2 : - ] w.a.K 6.%.C.M.v.c.3 , * _ 3.U.z.d.T Q . > v.v.v.v.b.Z.C.3 , ",
"v.v.s v.Z.Z.v.v.v.v.3 v.C.Z.Z.G.G.Z.b.v.3 v.C.C.C.C.C.Z.Z.C.v.2 2 X.=.2.<.%.@.x.: : 2 3 , [ w.a.Y I N m 4 0 *.H.F.C.C.Z.Z.C.v.2 ",
"2 2 3 v.b.b.v.3 3 3 3 v.v.b.b.b.b.b.v.3 3 v.C.Z.Z.C.C.C.C.b.3 2 2 2 3 x.M.M.3 = e t s x.: ] w.r.G V S C 7 u D.H.C.b.C.C.C.b.3 3 ",
"@ : 2 3 2 2 3 3 2 , 3 2 , : : : 2 3 3 3 3 v.Z.Z.b.v.2 2 2 2 , : @ : 2 3 3 1 - t f c %.v.: % _ ~ y ^ ,.1.$.&.n.c.1 , 3 v.3 2 , , ",
"@ : 2 3 2 2 3 3 , 2 3 3 , @ @ @ 2 2 3 3 3 v.C.C.b.v.3 2 , , 2 , @ : 2 3 2 : - y F 7.1.v.: @ - - : 1 x.M.M.m.-.| X # 3 v.3 2 , , ",
"2 2 3 3 3 3 3 3 3 3 C.C.b.v.2 3 b.N.v.3 3 3 v.b.C.Z.C.b.3 3 b.b.3 2 3 3 3 2 2 X.%.1.@.x.2 3 v.v.x.1 ; - - [ w.9.h 9 o.C.C.b.3 3 ",
"2 3 3 3 3 3 3 3 3 v.Z.G.Z.C.v.3 b.N.v.3 s 3 2 2 v.b.C.b.3 3 b.b.v.3 3 3 3 3 2 3 c.M.v.v.v.v.b.m.;.;.:.O.] / p.R b 5 ^ &.m.N.c.3 ",
", , , , , , , 2 3 v.Z.Z.b.v.2 > 2 3 3 s +.2 @ + $ , 2 , : : , 2 3 3 2 , , , - @ - 1 b.Z.Z.M.1 ] w.j.I.I.h.p.P M n v 5 w X.c.2 , ",
"2 2 , , , , , , 2 3 b.b.v.3 2 , : , 2 3 3 2 * + + @ : : + @ , 3 v.v.3 1 : * _ !   & +.Z.Z.v.: ` w.k.Y.l.s.W G S D Z 7 w a 3 , , ",
"C.b.3 2 3 2 , : , , 2 2 3 3 3 2 , : , 2 3 3 2 , : : : : : , v.C.C.C.C.c.- _ q.8.g 8 a v.v.x.2 +.>.4.e.L A j ^ { <.1.%.o.+.3 3 3 ",
"Z.C.3 2 3 2 2 , , , , 2 3 3 3 3 2 , , 2 3 3 3 3 3 2 2 2 2 v.C.Z.Z.C.C.v.- ` y.u.x q a x.v.v.+.v.M.%.6.B 6 0 s c.M.N.N.b.3 3 3 3 ",
"v.v.2 , , , 2 3 2 2 3 3 3 v.3 3 3 2 2 3 3 3 3 v.b.C.C.C.C.C.Z.Z.b.v.3 , : < >.5.-.o.+.v.C.C.v.x.c.@.%.,.$.o.+.3 3 3 3 2 , 2 3 3 ",
"3 3 2 , , 2 3 3 3 3 3 3 3 3 3 3 3 3 v.v.v.v.3 v.C.C.C.C.C.C.C.m.v.3 , , , 3 b.C.C.M.x.3 b.b.b.v.v.b.N.C.C.C.v.3 2 , , , 2 3 v.v.",
"3 3 3 3 3 3 3 3 3 3 3 3 2 , , 2 3 v.C.C.C.C.v.3 v.v.3 3 v.v.v.v.3 3 3 3 3 3 v.v.v.c.2 , 2 3 b.C.C.C.M.v.v.v.c.3 3 2 2 3 b.C.C.C.",
"3 3 s 3 v.3 3 3 3 3 3 3 , , : , 3 v.C.G.G.C.v.3 3 2 , , 2 3 3 3 3 3 3 3 +.s 3 3 3 2 , : : 2 C.G.G.C.v.3 3 3 3 x.3 3 3 v.Z.G.Z.Z."
};
