/* XPM */
static char *f6c55cefe91345449b505146863894c8x9bRrytzjytddXxY[] = {
/* columns rows colors chars-per-pixel */
"64 64 196 2 ",
"   c #5D3F2A",
".  c #32753E",
"X  c #5E402B",
"o  c #5F4B3C",
"O  c #63442E",
"+  c #6A482F",
"@  c #664730",
"#  c #6B4B32",
"$  c #664C3A",
"%  c #714F35",
"&  c #735136",
"*  c #7A5437",
"=  c #765338",
"-  c #7A563A",
";  c #7E593C",
":  c #377B43",
">  c #3A7C45",
",  c #794C4C",
"<  c #6E5549",
"1  c #735946",
"2  c #795E49",
"3  c #745555",
"4  c #7A5454",
"5  c #755959",
"6  c #7B5C5C",
"7  c #507159",
"8  c #5B7E64",
"9  c #666465",
"0  c #696566",
"q  c #6A6668",
"w  c #6D6D6D",
"e  c #7E6464",
"r  c #756966",
"t  c #736D6D",
"y  c #667869",
"u  c #657A69",
"i  c #7B736C",
"p  c #736E72",
"a  c #6C7271",
"s  c #6E7974",
"d  c #747474",
"f  c #7A7475",
"g  c #727C75",
"h  c #7A7679",
"j  c #767A7A",
"k  c #7C7C7C",
"l  c #970606",
"z  c #9C0101",
"x  c #8C1818",
"c  c #8C1B1B",
"v  c #981717",
"b  c #A50000",
"n  c #AC0202",
"m  c #B80000",
"M  c #A61919",
"N  c #B31B1B",
"B  c #8A2727",
"V  c #942525",
"C  c #853333",
"Z  c #8C3434",
"A  c #8C3A3A",
"S  c #953737",
"D  c #A13636",
"F  c #D70000",
"G  c #DA0101",
"H  c #CC1313",
"J  c #CF1B1B",
"K  c #D21818",
"L  c #C52E2E",
"P  c #CA3232",
"I  c #D03738",
"U  c #825C3E",
"Y  c #874A4A",
"T  c #894A4A",
"R  c #9B4343",
"E  c #855E40",
"W  c #885F40",
"Q  c #865757",
"!  c #8B5D5D",
"~  c #955959",
"^  c #876041",
"/  c #8B6344",
"(  c #82654F",
")  c #906746",
"_  c #926847",
"`  c #9A6E4B",
"'  c #9E714E",
"]  c #846751",
"[  c #8B6C54",
"{  c #8F7057",
"}  c #947359",
"|  c #99765B",
" . c #A1734F",
".. c #A47550",
"X. c #A77852",
"o. c #AB7A54",
"O. c #A07B5E",
"+. c #B07E57",
"@. c #826565",
"#. c #8B6565",
"$. c #846B6B",
"%. c #8C6C6C",
"&. c #946464",
"*. c #9B6565",
"=. c #926C6C",
"-. c #80766D",
";. c #817573",
":. c #8C7373",
">. c #857B74",
",. c #827C7C",
"<. c #897D78",
"1. c #937373",
"2. c #A47E61",
"3. c #A27272",
"4. c #198835",
"5. c #1D8C39",
"6. c #228F3D",
"7. c #22913E",
"8. c #0DAA3B",
"9. c #1EAD50",
"0. c #30A44F",
"q. c #23B254",
"w. c #27B759",
"e. c #28B75A",
"r. c #29B95B",
"t. c #36AC63",
"y. c #39AF66",
"u. c #3DB36A",
"i. c #459B58",
"p. c #5D8066",
"a. c #5D846C",
"s. c #598869",
"d. c #61866F",
"f. c #65886D",
"g. c #6E8271",
"h. c #648A73",
"j. c #6C8E75",
"k. c #718675",
"l. c #78847C",
"z. c #649375",
"x. c #6C9075",
"c. c #6C957B",
"v. c #6E9C7E",
"b. c #71967F",
"n. c #41B66D",
"m. c #42B86F",
"M. c #44BA71",
"N. c #64A177",
"B. c #31D76C",
"V. c #32D86D",
"C. c #4ECB7F",
"Z. c #B48159",
"A. c #888179",
"S. c #8E827A",
"D. c #91857D",
"F. c #A88263",
"G. c #A98A72",
"H. c #7D7F80",
"J. c #817E80",
"K. c #7E8181",
"L. c #7A8B82",
"P. c #729680",
"I. c #749A83",
"U. c #6EA180",
"Y. c #7CA38B",
"T. c #51CD81",
"R. c #4FD381",
"E. c #54D185",
"W. c #58D589",
"Q. c #838383",
"!. c #898486",
"~. c #838986",
"^. c #878788",
"/. c #8A8689",
"(. c #868A8A",
"). c #8B8B8B",
"_. c #948A85",
"`. c #83938A",
"'. c #918E90",
"]. c #8D9791",
"[. c #909090",
"{. c #909191",
"}. c #989A9A",
"|. c #89A494",
" X c #94A59B",
".X c #9AAAA1",
"XX c #93D4A9",
"oX c #9DD7B6",
"OX c #9ED8B6",
"+X c #B4C4BC",
"@X c #A3DDBB",
"#X c #84F3AF",
"$X c #86F3B0",
"%X c #A6E1BF",
"&X c #BAC8C2",
"*X c #A9E2C1",
/* pixels */
"[.).Q.k k Q.).).Q.h d w 0 9 0 q p d q q d d d d k Q.).[.).).).[.).).Q.k k Q.).).Q.h d w 0 9 0 q p d q q d d d d k Q.).[.).[.).).",
").).Q.k k Q.).).Q.k h k ~.L.d.a.g h d w d d d d h k ^.).).).).).).).Q.k k K.).).Q.k h k ~.L.d.a.g h d w d d d d h k ^.).).).).).",
"Q.Q.Q.k h h Q.Q.Q.Q.^.}.+XoXC.u.b.Q.k h h h w w d h h k Q.Q.k k Q.Q.A.k h h Q.Q.Q.Q.^.}.+XoXC.u.b.Q.k h h j w w d h h k Q.Q.k h ",
"k k k h d d d h h k Q. X%X#XV.w.c.!.J.k k h d w w w t d k k h d k k k h d d d h h k Q. X%X#XB.w.c.!.J.k k h d w w w t d k k h d ",
"k k h d w q q w d h h c.E.B.8.5.8 k h d d d h d q 0 q t h k k k k k h d w q q w d h h c.E.B.8.5.8 k h d d d h d q 0 q t h k k k ",
"Q.Q.k h d d d a w t p d.n.r.7.: u k h h h h k Q.~.L.a.a.g k k k Q.Q.k h d d d d a t p d.n.r.7.: u k k h h h k Q.~.L.a.a.g k k k ",
").).).^.^.^.^.k w 0 q a c.v.x.k.~.).).).).^.k [.+XOXC.y.h.d d h ^.).).^.^.^.^.k w 0 q a c.v.x.k.~.).).).).^.k [.+XOXC.y.h.h d d ",
").).).).).).).).(.L.a.d.l./././.).).).[.[.).^.|.@X#XV.q.s.h d h ^.).).).).).).).(.L.a.d.l./././.).).[.[.[.).Q.|.@X#XB.q.s.h d d ",
"h k Q.Q.Q.J.h [.+XOXC.y.h.f p f k ^.).[.[.'.).Y.W.B.8.5.p.,.k k h k Q.Q.Q.J.h [.+XoXC.y.h.f p f k ^.).[.[.'.).Y.W.B.8.5.p.k k h ",
"d h k Q.Q.h d `.@X#XB.r.U.`.h.p.s k ^.).)./.!.b.M.r.7.: u J.Q.Q.h h k Q.Q.h d `.@X#XB.r.U.`.h.p.s k ^.).)./.!.b.M.r.7.: u ,.Q.Q.",
"h k ^.).Q.k k c.E.B.8.0.XX@XT.t.p.p k Q.k d d g c.v.x.g.g k ^.).k k ~.).Q.k k c.E.B.8.0.XX@XT.t.p.p k Q.k d d g c.v.x.g.g k ^.).",
"k Q.).).Q.J.Q.c.M.e.6.i.XX$XV.q.s.d k k h d w d Q.).).!.h h ^.).Q.Q.).).Q.Q.Q.c.M.e.6.i.XX$XV.q.s.d k k h d w d Q.).).!.h h ^.).",
"d h Q.Q.Q.Q.).`.I.v.j.N.R.B.8.5.f.^.Q.k k h d d k Q.Q.Q.k k Q.k h h Q.Q.Q.Q.).`.I.v.j.N.R.B.8.5.f.^.Q.k k h d d k Q.Q.Q.k k Q.Q.",
"d d h h h h Q.^./././.P.M.e.6.> g.^.,.h h h d d h k Q.Q.Q.Q.Q.k d d h h h h Q.^./././.P.M.e.6.> g.^.,.h h h d d h k Q.Q.Q.Q.Q.Q.",
"d d d d w w a d h h d g c.v.j.g.d d d d w w d d d h ^.).).).).^.h d d d w w w d h h d g c.v.j.g.d d d d w w d d d h ^.).).).).).",
"h h h h d a w w d d w h }..X|.P.s w d d q 0 w d d h ^.).).).).^.k h h h d w w w d d w h }..X|.P.s w d d q 0 w d d h ^.).[.).).).",
").).).).^.Q.k k ^.Q.h [.&X*XW.n.h.h k d q 0 q t h k Q.^.).).k k ^.).).).^.Q.h k ^.Q.h [.&X*XW.n.h.h k d q 0 q t h k Q.^.).).k h ",
").).).).).).Q.Q.)./.J.].@X#XB.w.z.Q.k K.~.L.a.a.l.Q.h h Q.Q.h h ^.).).).).).Q.Q.)./.J.].@X#XB.w.z.Q.k K.~.L.a.a.l.Q.h h Q.Q.h d ",
"Q.Q.Q.Q.Q.Q.Q.Q.Q.Q.J.I.E.B.8.7.j./.k ).+XOXC.u.I.Q.d q t d h k Q.Q.Q.Q.Q.Q.Q.Q.Q.Q.J.I.E.B.8.7.j./.k ).+XOXC.u.I.Q.d q t d h k ",
"h h k k k k k k k k k h.y.9.4.. g.Q.h `.@X#XB.w.c.).).L.a.a.g k h h k k k k k k k k k h.y.9.4.. g.Q.h `.@X#XB.w.c.).).L.a.a.g k ",
"w d h k h h k k h d d s p.7 7 7 d h d x.T.B.8.5.8 [.+XOXC.y.h.d w d h k h h k k h d d s p.7 7 7 d h d x.T.B.8.5.8 [.+XOXC.y.h.h ",
"w d h k h h k k h d h h d h ^.L.h.h.g j.m.r.7.: u ].@X#XV.q.s.d t d h k h h k k h h h h d h ^.L.h.h.g j.m.r.7.: u ].@X#XV.q.s.h ",
"h h k k k k k k k k ^.^.Q.}.&XOXT.n.b.(.I.v.j.k.Q.Y.W.B.8.5.p.k h h k k k k k k k k ^.^.Q.}.&XOXT.n.b.(.I.v.j.k.Q.Y.W.B.8.5.p.,.",
"Q.k h h h h h k k Q.).).)..X*X#XB.w.c././././.!.!.P.M.r.7.: u k Q.k h h h h h k k Q.).).)..X*X#XB.w.c././././.!.^.P.M.r.7.> u k ",
"Q.h t q w t d h k Q.).'.'.Y.W.B.8.5.8 k k h d d d g b.v.x.g.g h k h w q w t d h k Q.).'.'.Y.W.B.8.5.8 k k h d d d g b.v.x.g.h d ",
"h k Q.L.a.p.a d h k ^.).).I.M.r.7.: u d d d w q q d Q.).)./.k d d k Q.L.d.p.a d h k ^.).).I.M.r.7.: u d d d w q q d Q.).)./.k d ",
"q ~.+XOXC.y.a.d d h k Q.Q.L.I.v.x.k.g h h h h d d d k Q.Q.Q.k d w Q.+XOXT.y.a.d d h k Q.Q.L.I.v.j.k.g h h h h d d d k Q.Q.Q.k h ",
"q L.OX#XV.q.s.h h k Q.Q.Q.^./.).).).^.Q.Q.Q.Q.k d d h h h k k h w L.OX#XV.q.s.h h k Q.Q.Q.^./.).).).^.Q.Q.Q.Q.k d d h k h k k k ",
"h c.T.B.8.5.p.J.^.).).).).).Q.Q.Q.^.).).).).Q.k d d d d d h k k h c.E.B.8.5.p.J.^.).).).).).Q.Q.Q.^.).).).).Q.k d d d d d h k ,.",
"J.c.M.r.7.: u Q.).).).).).^.Q.Q.H.Q.).).).).Q.k h d d d h k Q.Q.J.c.M.r.7.> u Q.).).).).).^.^.Q.k Q.).).).).Q.k h d d h h k Q.Q.",
"H.L.I.v.x.k.l.Q.Q.Q.Q.K.k k ^.).Q.K.Q.Q.Q.Q.Q.k k k k H.^.).).(.Q.l.I.v.j.k.l.J.Q.Q.Q.Q.k k ^.).Q.k Q.Q.Q.Q.Q.k k h h k ^.).).).",
"S.S.D._._.S.;.i i ;.<.>.-.-.S.S.;.i i i t t i i i ;.<.S.S.S._._.!.^./.).).).^.Q.k k k h d h ^.).Q.h h h h k k k k Q.Q.^.).[.).).",
"F.F.| } | } ( 2 2 ] O.2.} { } { ( 2 2 1 $ $ 1 2 2 ] O.2.[ [ 2.G._.).^.Q.Q.^.).).Q.k d d d d k Q.h d w w d d d h k Q.).).).).).).",
"o...` _ / U - & & U ..o._ W W U - - U U # # & - U _ o. .; * _ | D.(.Q.k k Q.).(.k h h h h k Q.Q.k d d w d d d d j k Q.(.).).).).",
"W / _ / & # & - = U ` _ & O O # % U '  .) U - U ' o...) # O + 1 f Q.Q.k h h Q.k d d Q.).).).).).).^.k h h h w q w a a d l.Q.k h ",
"W / / U # O # = U / / U # X   # ; _ ....` / ; U ` ' / ; & # O $ t k k h d d d t 3 5 ,.).).).(.^.^.Q.k k k h d r Q Y , 5 f k h d ",
"o. ./ - & # O % `  ./ - & # # ; ` ..) W U ; - = & # @ & _ _ - 1 i k h d w q w 3 B B e k Q.k d a a d d d d j j &.L H M C @.K.k k ",
"Z. .U = U ; @ & ' ..U % = ; W _ o.../ - - - ; - @ O # U ....W 2 ;.Q.k h d a w 5 Z Z e j k ;.Q Y , 3 t j h k K.*.P K M A @.k k k ",
" ./ # % ` ' ; - _ _ # O % W  .o...` _ / ; ; / / = - _ ...._ U 2 <.).).).^.Q.k f %.%.,.k K.&.L H v C e K.^.^.Q.>.*.*.&.%.f d d d ",
"` ^ # & ' o._ / ^ ; # # & W  .X.' _ / U - - W W - ^ ..o._ U - 2 >.).).).).).Q.K.(.(.k j j &.P K M A $.Q.(.(.Q.K.K.~.(.^.h d d d ",
"` / - - _ ..o.` = # ; W ; ; W / _ / & # & & # # & W ` _ & # % 2 i k Q.Q.Q.Q.h j h j a a a r ! ~ &.:.,.k k k K.Q.(.(.K.k k k h h ",
"/ ^ = - / ' o.' & # / / - # # & U ; # O % # X X # ; / U # # ; ] i h K.Q.Q.k h d d r Q Y , 5 d K.(.(.K.;.! ~ ! #.<.Q.d d h k Q.Q.",
"; = @ # / ` ' _ - - / / # X X X O # # & = # X X # - ; - & ; ` O.>.K.^.).Q.k k j a Q L H M Z $.K.Q.K.j &.P K N S @.j w w d k ^.).",
"/ ; # # U / / W = - / E # O # % # % = ; W U = % = - ; ; - W ..F.>.K.(.).Q.,.#.! 4 S H G m v T $.,.K.j ~ J G m v Q d a w d h ^.).",
"o.` ; & - ; ; = @ @ = - & - _ ...._ U W ' o...` U ; / / ; U _ } -.h Q.Q.K.#.D M v M n n b l x A :.(.K.! M n z x Q k h h h k Q.Q.",
"o.' W - W / / ; # # - ; - W ' +.Z...; ;  .Z.Z...W ; / / W W ) [ i d j j j @.S M M V V V V V V A %.~.K.e C x x C e K.Q.Q.Q.Q.Q.Q.",
"/ W - W ' o.o. ./ / / / ; - W ) ' ) # # / ....` U - ; W / _ _ [ i d a w a t @.! ! #.%.=.=.=.=.%.d a a q 3 3 4 6 d k ^.).).).).).",
"; ; - W ' o.Z.o.` _ ` ) U = % = ^ W % & / _ _ / ; = = - U / / [ i f Q Y , 5 h K.Q.(.).).).).(.,.! Y , 5 q a d d d k ^.).).).).).",
"/ / ; - W ) ` ` / W _ _ U % O @ = U W / _ _ W ; - = = & # # - ] A.=.P H M C e Q.).).^.Q.k j s ! L H M Z e j j d h k Q.^.).).k h ",
") / W - & = W / ; - U U = # O O % ; / / / / ; - W / / ; # O & ] A.3.I K M A $.Q.Q.^.Q.k d t 5 S H G m v T e f h Q.Q.Q.^.).).k d ",
"; E / U # O = ; - & # O X O # & = - ; ; ; - - W ' o.o.` ; = W [ <.<.*.*.&.:.,.k d d k k j 6 Z M n b z l x C e Q.).).).).).).Q.h ",
"= U / / # # ; / / ; # O # & ; ; & = U / / U & U ..Z.Z. .U = / [ i h H.K.(.(.Q.f 3 3 f h d 5 Z v x x B B V Z e K.Q.).).).).^.k k ",
"= ; ) / - ; ` o.o.` - - _  ._ U # % _ o.o._ % # ) ..../ # O - 2 r d k K.k k K.@.B B 6 d w 0 3 , 3 6 #.%.=.%.t a a d k Q.k h j d ",
"; W / / ; W ..Z.Z.X._ ) ..X.' W O # ` Z.Z.' & @ - / _ / # O # < 0 d k k h j k @.Z Z @.j d d d d j K.Q.(.(.<.! Y , 5 f Q.k h j d ",
") / W ; - U _  .' ..o...) / _ ^ O @ / ...._ - # @ & / / - # O $ r k k k k k k ;.@.$.,.(.^.^.^.(.(.Q.j s j &.P H v C :.).).^.K.k ",
") ^ = & - W / / _ ' o.o.) / / U # # U / / / ; & O # U / / U & 1 i H.k k k k h j j K.).[.[.).).!.1.&.~ Q Q R K F b x ~ :.!.(.Q.k ",
"U = @ # E / U W / ` ' ..o.' / - & & - U ; ; - = & & - /  .o...| >.k j d d d a w a j (.[.[.).K.@.S N K J M M n n z l x A %.K.h d ",
"- & # % ^ / ; ; / _ ) ` o.X./ ; - = % = U U = % = - U _ o.Z.Z.F.S.Q.k h j i Q Y , 5 ,.).).^.k e S N G G m l v B x x x Z @.k h d ",
"= - E W U ; - ; / _ W ^ ` ' _ / ; % O % ` ` % O % W ' o...'  .| D.).).^.K.&.L H v C @.Q.Q.Q.k ,.:.~ M b z x Y @.6 6 Q @.;.k k k ",
"; W / / = & U / / ^ = = ^ / / / / U & ; ' ` - # & W ' ..` _ _ } S.).).^.K.&.P K M A $.Q.Q.Q.k Q.(.:.A B B A $.K.j j k k k k k k ",
"/ / W = O % `  ./ = O @ - - # = ` o...` / / ^ U - - U / _ ` ` } <.Q.k h d ;.&.*.&.:.!.).).).Q.K.Q.,.:.%.%.:.,.k j d d d d h k l.",
"` / U & % U ..X./ = @ O # # O & ' Z.Z...W - / / W ; ; U / / / ] ;.k h d d j k K.(.).).).).~.^.Q.k Q.).).).).Q.k h d d d h k Q.Q.",
"` / ; U _ .. .` _ ^ - # O O # - _  . ._ U - ; W / / / / U - # < i k k h k k l.K.Q.Q.Q.Q.k k ^.).Q.k Q.Q.Q.Q.K.k k k h k ^.).).).",
"` / ; / o.Z.' _ ` ) U % X X % U / ` ` / ; = = ; / ` ` / U #   o t K.K.k k l.l.k k k k h d h ).).Q.k k k k k k K.k k k Q.).[.[.[."
};
